<svg xmlns="http://www.w3.org/2000/svg" xmlns:xlink="http://www.w3.org/1999/xlink" width="40" zoomAndPan="magnify" viewBox="0 0 30 30.000001" height="40" preserveAspectRatio="xMidYMid meet" version="1.0"><defs><g/><clipPath id="cd7a63cee5"><path d="M 1.40625 1.121094 L 28.265625 1.121094 L 28.265625 27.875 L 1.40625 27.875 Z M 1.40625 1.121094 " clip-rule="nonzero"/></clipPath><clipPath id="c6d9736612"><path d="M 2.742188 1.121094 L 26.921875 1.121094 C 27.273438 1.121094 27.613281 1.261719 27.867188 1.511719 C 28.117188 1.761719 28.257812 2.101562 28.257812 2.457031 L 28.257812 26.539062 C 28.257812 26.894531 28.117188 27.230469 27.867188 27.484375 C 27.613281 27.734375 27.273438 27.875 26.921875 27.875 L 2.742188 27.875 C 2.390625 27.875 2.050781 27.734375 1.796875 27.484375 C 1.546875 27.230469 1.40625 26.894531 1.40625 26.539062 L 1.40625 2.457031 C 1.40625 2.101562 1.546875 1.761719 1.796875 1.511719 C 2.050781 1.261719 2.390625 1.121094 2.742188 1.121094 Z M 2.742188 1.121094 " clip-rule="nonzero"/></clipPath></defs><g clip-path="url(#cd7a63cee5)"><g clip-path="url(#c6d9736612)"><path fill="#ffffff" d="M 1.40625 1.121094 L 28.265625 1.121094 L 28.265625 27.875 L 1.40625 27.875 Z M 1.40625 1.121094 " fill-opacity="1" fill-rule="nonzero"/></g></g><g fill="#000000" fill-opacity="1"><g transform="translate(6.157914, 23.580046)"><g><path d="M 10.140625 0 L 10.140625 -0.4375 C 10.617188 -0.46875 10.972656 -0.523438 11.203125 -0.609375 C 11.441406 -0.703125 11.601562 -0.878906 11.6875 -1.140625 C 11.769531 -1.410156 11.8125 -1.8125 11.8125 -2.34375 L 11.8125 -13.34375 C 11.8125 -13.882812 11.769531 -14.285156 11.6875 -14.546875 C 11.601562 -14.804688 11.4375 -14.984375 11.1875 -15.078125 C 10.945312 -15.171875 10.597656 -15.226562 10.140625 -15.25 L 10.140625 -15.6875 C 10.546875 -15.675781 11.066406 -15.660156 11.703125 -15.640625 C 12.347656 -15.628906 12.988281 -15.625 13.625 -15.625 C 14.300781 -15.625 14.9375 -15.628906 15.53125 -15.640625 C 16.132812 -15.660156 16.625 -15.675781 17 -15.6875 L 17 -15.25 C 16.519531 -15.226562 16.15625 -15.171875 15.90625 -15.078125 C 15.664062 -14.984375 15.507812 -14.804688 15.4375 -14.546875 C 15.363281 -14.285156 15.328125 -13.882812 15.328125 -13.34375 L 15.328125 -2.34375 C 15.328125 -1.8125 15.367188 -1.410156 15.453125 -1.140625 C 15.535156 -0.878906 15.691406 -0.703125 15.921875 -0.609375 C 16.160156 -0.523438 16.519531 -0.46875 17 -0.4375 L 17 0 C 16.625 -0.03125 16.132812 -0.046875 15.53125 -0.046875 C 14.9375 -0.0546875 14.300781 -0.0625 13.625 -0.0625 C 12.988281 -0.0625 12.347656 -0.0546875 11.703125 -0.046875 C 11.066406 -0.046875 10.546875 -0.03125 10.140625 0 Z M 0.75 0 L 0.75 -0.4375 C 1.226562 -0.46875 1.582031 -0.523438 1.8125 -0.609375 C 2.050781 -0.703125 2.210938 -0.878906 2.296875 -1.140625 C 2.378906 -1.410156 2.421875 -1.8125 2.421875 -2.34375 L 2.421875 -13.34375 C 2.421875 -13.882812 2.378906 -14.285156 2.296875 -14.546875 C 2.210938 -14.804688 2.046875 -14.984375 1.796875 -15.078125 C 1.554688 -15.171875 1.207031 -15.226562 0.75 -15.25 L 0.75 -15.6875 C 1.132812 -15.675781 1.632812 -15.660156 2.25 -15.640625 C 2.863281 -15.628906 3.53125 -15.625 4.25 -15.625 C 4.875 -15.625 5.488281 -15.628906 6.09375 -15.640625 C 6.695312 -15.660156 7.195312 -15.675781 7.59375 -15.6875 L 7.59375 -15.25 C 7.125 -15.226562 6.765625 -15.171875 6.515625 -15.078125 C 6.273438 -14.984375 6.117188 -14.804688 6.046875 -14.546875 C 5.972656 -14.285156 5.9375 -13.882812 5.9375 -13.34375 L 5.9375 -2.34375 C 5.9375 -1.8125 5.976562 -1.410156 6.0625 -1.140625 C 6.144531 -0.878906 6.300781 -0.703125 6.53125 -0.609375 C 6.769531 -0.523438 7.125 -0.46875 7.59375 -0.4375 L 7.59375 0 C 7.195312 -0.03125 6.695312 -0.046875 6.09375 -0.046875 C 5.488281 -0.0546875 4.875 -0.0625 4.25 -0.0625 C 3.53125 -0.0625 2.863281 -0.0546875 2.25 -0.046875 C 1.632812 -0.046875 1.132812 -0.03125 0.75 0 Z M 4.5 -7.671875 L 4.5 -8.109375 L 13.25 -8.109375 L 13.25 -7.671875 Z M 4.5 -7.671875 "/></g></g></g></svg>